<svg width="109" height="50" viewBox="0 0 109 50" fill="none" xmlns="http://www.w3.org/2000/svg">
	<path
		d="M0.800293 5.11036C0.800293 7.91374 0.827913 10.22 0.855532 10.22C0.883152 10.22 1.42173 9.98521 2.05698 9.6814C8.06424 6.91944 14.9415 5.0275 17.9935 5.3175C20.6312 5.56608 24.8155 7.48564 28.0746 9.94378C29.1104 10.7309 32.4247 14.0453 32.4247 14.2939C32.4247 14.3767 32.7009 14.8186 33.0462 15.2467C33.3914 15.6887 33.6676 16.172 33.6676 16.3101C33.6676 16.462 33.7366 16.5725 33.8057 16.5725C33.9576 16.5725 34.22 17.1387 34.2614 17.5944C34.2752 17.7601 34.3857 17.9535 34.4962 18.0501C34.6067 18.133 34.6619 18.2435 34.6205 18.2987C34.4824 18.423 34.0681 17.9535 34.1647 17.7877C34.22 17.7049 34.1647 17.5944 34.0681 17.5254C33.7919 17.3458 33.6676 17.3735 33.6676 17.6082C33.6676 17.7187 33.5571 17.8154 33.4328 17.8154C33.3085 17.8154 33.0185 17.9811 32.8114 18.1882C32.6042 18.3954 32.4247 18.4782 32.4247 18.3954C32.4247 18.2711 32.3557 18.2573 32.1623 18.3678C31.9414 18.4782 31.8447 18.423 31.6099 18.0501C31.2647 17.5254 31.2233 17.6635 31.5409 18.2711C31.9828 19.0997 32.0104 19.1963 32.0104 19.5278C32.0104 19.7073 32.0657 19.8868 32.1347 19.9145C32.1899 19.9283 32.3004 20.1078 32.3557 20.2873C32.4247 20.5221 32.4109 20.5911 32.2866 20.5083C32.1899 20.453 32.0657 20.4945 31.9966 20.5911C31.8999 20.743 31.8723 20.7292 31.8723 20.5359C31.8723 20.3978 31.7618 20.3011 31.6237 20.3011C31.4856 20.3011 31.2509 20.2045 31.099 20.094C30.9609 19.9835 30.7261 19.8868 30.588 19.8868C30.3947 19.8868 30.3671 19.9421 30.4913 20.1492C30.5604 20.3011 30.6294 20.6326 30.6294 20.9088C30.6294 21.3783 30.6433 21.3921 31.2233 21.4473L31.8033 21.5026L31.2233 21.5164C30.6571 21.544 30.6294 21.5716 30.6294 21.9583C30.6294 22.4002 30.4223 22.4693 29.8699 22.2345C29.6075 22.1102 29.6075 22.1102 29.9113 22.0135C30.3118 21.8893 30.298 21.6821 29.8699 21.6821C29.6904 21.6821 29.4832 21.5993 29.428 21.5026C29.3175 21.3369 28.5304 20.8535 28.3646 20.8535C28.3232 20.8535 28.2818 20.9778 28.2818 21.1297C28.2818 21.3507 28.3784 21.4059 28.7513 21.4059H29.207L29.3037 22.2897C29.3451 22.7731 29.3451 23.5188 29.3037 23.9331C29.2208 24.596 29.1794 24.6788 28.8894 24.6788C28.627 24.6788 28.558 24.5822 28.4199 24.016C28.3094 23.5464 28.1299 23.2564 27.8675 23.0631C27.4118 22.7455 26.956 22.6902 27.3841 23.0078C27.6327 23.1874 27.6603 23.4083 27.7018 25.3141C27.757 27.5927 27.6603 28.0346 27.536 26.0322C27.4946 25.3417 27.4532 24.6926 27.4394 24.5822C27.4118 24.2507 27.1494 25.3003 27.1632 25.7146C27.1632 25.9355 27.0941 26.1012 26.9975 26.1012C26.6798 26.1012 26.0722 26.4465 26.0722 26.6122C26.0722 26.8746 25.9479 26.847 24.8846 26.3222C24.3598 26.0598 23.5036 25.6593 22.965 25.4246C22.4402 25.176 21.7497 24.8446 21.4459 24.6926C21.1421 24.5269 20.7969 24.3474 20.6864 24.2922C20.1064 23.9745 15.8115 21.9583 15.7425 21.9583C15.6872 21.9583 15.342 21.7926 14.9553 21.6131C13.8091 21.0469 13.7677 21.0607 11.8619 23.0217C10.9367 24.0022 9.37617 25.6869 8.4233 26.7917C7.45661 27.8965 6.62802 28.808 6.57279 28.8356C6.39326 28.9184 6.4485 29.1394 6.64183 29.1394C6.7385 29.1394 7.5809 28.2832 8.49235 27.2336C11.1853 24.1403 13.7677 21.544 14.1267 21.544C14.4306 21.544 20.6864 24.6374 22.8269 25.8527C23.4345 26.1979 24.3184 26.6674 24.8017 26.9022C25.8374 27.4132 26.5003 27.8965 26.1689 27.8965C26.0446 27.8965 25.9065 27.8275 25.8651 27.7584C25.8236 27.6756 25.6579 27.6203 25.506 27.6203C25.1608 27.6203 25.1608 28.0346 25.5198 28.1313C25.6717 28.1727 25.796 28.2694 25.796 28.3384C25.796 28.4075 25.6855 28.4351 25.5612 28.4075C25.0089 28.2556 24.2769 28.1727 24.2769 28.2556C24.2769 28.3108 24.3736 28.4213 24.5117 28.518C24.926 28.8218 24.5946 29.0013 24.0007 28.7942L23.4483 28.6008V29.0703C23.4483 29.4018 23.5174 29.5537 23.6969 29.5951C23.9179 29.6504 23.9179 29.6642 23.6969 29.678C23.5312 29.6918 23.4483 29.8023 23.4483 30.037C23.4483 30.3132 23.3793 30.3823 23.1169 30.3823C22.896 30.3823 22.7579 30.4789 22.7164 30.6723C22.6612 30.8932 22.5783 30.9347 22.3159 30.8656C21.9983 30.769 21.9983 30.769 22.2745 30.9899C22.5921 31.2385 22.896 31.2799 22.896 31.0728C22.896 30.9899 22.9926 30.9347 23.1169 30.9347C23.2826 30.9347 23.3103 30.9899 23.2136 31.1004C23.0202 31.349 22.9098 32.0256 23.0479 32.1223C23.1169 32.1637 23.1722 32.2604 23.1722 32.3433C23.1722 32.4399 22.9374 32.2328 22.6612 31.9014C21.5288 30.5756 20.1202 29.4018 19.4435 29.2223C19.1259 29.1394 19.1259 29.1532 19.3607 29.3051C19.5126 29.4018 20.0926 29.9266 20.6588 30.4651L21.6945 31.4456L21.4045 31.7356C21.2388 31.9014 21.1007 31.9566 21.0731 31.8737C20.9764 31.5975 20.5483 31.8737 20.5621 32.2052C20.5621 32.3847 20.6035 32.4399 20.645 32.3433C20.7278 32.1223 20.935 32.1361 21.1835 32.3709C21.3493 32.5504 21.3355 32.6195 21.0316 32.9233C20.8383 33.1166 20.6864 33.3376 20.6864 33.4204C20.6864 33.6828 20.4378 33.5585 20.355 33.2547C20.2997 33.02 20.2445 32.9785 20.1202 33.1028C20.0097 33.2133 20.0511 33.379 20.3273 33.7381C20.5207 33.9866 20.6864 34.2766 20.6864 34.3595C20.6864 34.4562 20.7416 34.5252 20.7969 34.5252C20.8935 34.5252 21.4183 36.2376 21.4597 36.7348C21.4736 36.8453 21.5564 37.6739 21.6531 38.5715C21.7497 39.4691 21.7912 40.4772 21.7497 40.8225C21.6945 41.4163 21.8188 41.7477 21.9845 41.4025C22.0536 41.2644 22.0812 41.2644 22.1502 41.3887C22.2883 41.7063 22.5645 41.582 22.7993 41.0711C22.9788 40.6982 23.0064 40.5187 22.896 40.3944C22.7717 40.2563 22.8131 40.1734 23.0202 40.0629C23.3103 39.8972 23.9041 40.0491 24.0698 40.3115C24.1112 40.3944 24.3184 40.4634 24.4979 40.4634C24.8155 40.4634 24.8431 40.422 24.7603 40.0491C24.705 39.8282 24.7189 39.4967 24.7741 39.331C24.9398 38.8063 25.2298 41.1401 25.2436 43.1425C25.2436 45.3107 24.8984 47.7964 24.3322 49.7436C24.2907 49.8955 24.3322 49.9922 24.4427 49.9922C24.636 49.9922 25.0503 48.4041 25.4646 46.1254C25.7132 44.7307 25.8374 39.5244 25.6303 39.262C25.4231 39.0134 25.6165 38.5715 25.8236 38.7786C26.0722 39.0272 27.0389 38.9858 27.0389 38.7372C27.0389 38.6267 27.1632 38.5301 27.3013 38.5301C27.4532 38.5301 27.7432 38.461 27.9642 38.3643L28.3508 38.2124L27.9503 38.1296C27.3841 38.0191 27.3151 37.7015 27.8399 37.7015C28.0746 37.7015 28.2818 37.7567 28.3094 37.8119C28.337 37.881 28.627 37.9777 28.9446 38.0329L29.5523 38.1296L29.4556 37.7015C29.4004 37.4253 29.4142 37.2872 29.5247 37.2872C29.6075 37.2872 29.8975 37.1215 30.1599 36.9281C30.5604 36.6243 30.6294 36.5967 30.6294 36.8038C30.6294 36.9972 30.6985 37.0248 31.0023 36.9419C31.5409 36.8176 31.5685 36.7486 31.1818 36.4586L30.8366 36.1824H31.2785C31.5133 36.1824 31.7618 36.1133 31.8033 36.0305C31.8585 35.9476 32.1071 35.92 32.4247 35.9752C32.7423 36.0305 32.9909 36.0029 33.0462 35.92C33.0876 35.8371 33.2809 35.7681 33.4604 35.7681C33.6814 35.7681 33.8609 35.6438 33.999 35.3814C34.1095 35.1743 34.2062 35.0914 34.22 35.1743C34.22 35.4919 34.5238 35.3676 35.0624 34.8014C35.5181 34.3319 35.6838 34.249 36.1534 34.249C36.4572 34.249 36.7057 34.3043 36.7057 34.3871C36.7057 34.4562 36.8162 34.5252 36.9543 34.5252C37.1753 34.5114 37.1753 34.5114 36.9543 34.3319C36.5953 34.0695 36.6505 33.8762 37.1339 33.7104C37.7553 33.4895 37.8105 33.5171 37.8105 33.9314C37.8243 34.2905 37.8382 34.3043 38.0177 34.0695C38.1972 33.8209 38.211 33.8209 38.3629 34.1109C38.501 34.3595 38.4872 34.4424 38.3491 34.5528C38.211 34.6495 38.2248 34.6633 38.432 34.6219C38.5977 34.5943 38.6805 34.4976 38.6529 34.3733C38.6253 34.2628 38.4044 33.4066 38.142 32.4537C37.8934 31.5009 37.6448 30.5756 37.5896 30.3823C36.9405 27.9103 35.0624 21.9583 34.7724 21.4059C34.6895 21.2402 34.7033 21.0883 34.8414 20.9088C35.1176 20.5497 35.2143 20.7154 35.7529 22.4416C35.9876 23.2012 36.2638 24.0712 36.3605 24.375C36.4572 24.6788 36.6781 25.4246 36.8438 26.0322C37.0096 26.6398 37.2029 27.2613 37.2581 27.4132C37.3686 27.6479 38.5977 31.5561 38.8463 32.4261C38.8877 32.5918 39.0534 32.799 39.2053 32.8819C39.4125 32.9923 39.4539 33.0752 39.3296 33.1995C39.2329 33.3376 39.2329 33.5033 39.3296 33.7657C39.5091 34.2352 39.5782 34.18 39.6334 33.5309C39.6472 33.158 39.7439 32.9923 39.9787 32.8819C40.2411 32.7576 40.3239 32.7714 40.393 32.9785C40.4344 33.1028 40.6277 33.5447 40.8073 33.959C40.973 34.3595 41.1249 34.7876 41.1249 34.8843C41.1249 34.9948 41.1939 35.0776 41.263 35.0776C41.3458 35.0776 41.4011 35.1881 41.4011 35.34C41.4011 35.4781 41.5806 36.0581 41.8016 36.6105C42.3678 38.0329 45.0745 45.4902 45.2264 46.0564C45.2678 46.2083 45.3507 46.3878 45.4197 46.4707C45.475 46.5397 45.5578 46.8436 45.6131 47.1198C45.6683 47.4098 45.765 47.6445 45.8202 47.6445C45.8755 47.6445 45.9583 47.8517 46.0135 48.0864C46.055 48.335 46.2345 48.8736 46.3864 49.2741L46.6764 49.9922H77.4584H108.24V24.9965V0.000732422H54.5204H0.800293V5.11036ZM34.4686 19.1411C34.7862 19.7902 35.021 20.3702 34.9795 20.453C34.8276 20.674 34.4686 20.5911 34.3995 20.3011C34.3581 20.1492 34.2614 20.0664 34.1786 20.1216C34.1095 20.163 34.0819 20.1492 34.1233 20.0664C34.2062 19.9421 33.709 18.7821 33.5709 18.7821C33.5433 18.7821 33.419 18.8649 33.3085 18.9754C33.0462 19.2378 33.06 19.8178 33.3362 20.2321C33.5847 20.6049 33.5157 20.9916 33.1981 20.9916C32.9495 20.9916 32.4247 19.9283 32.4247 19.4449C32.4247 19.1825 32.6042 18.9201 33.0876 18.5197C33.4466 18.202 33.7643 17.9535 33.8057 17.9535C33.8471 17.9673 34.1371 18.492 34.4686 19.1411ZM34.9657 18.9892C35.0071 19.0997 35.0071 19.1963 34.9657 19.1963C34.9243 19.1963 34.8 19.0997 34.6895 18.9892C34.51 18.8097 34.51 18.7821 34.6757 18.7821C34.7862 18.7821 34.9105 18.8787 34.9657 18.9892ZM89.8458 20.6602C90.9368 21.0883 91.5168 22.1793 91.5306 23.7536C91.5306 24.3198 91.4616 25.0241 91.3787 25.3141C91.213 25.9079 90.5639 26.7089 89.9977 27.0127C89.5006 27.2613 87.5396 27.2751 86.932 27.0127C85.8686 26.5708 85.2472 25.1898 85.3438 23.5602C85.4819 21.5026 86.5177 20.4392 88.382 20.4392C88.9068 20.4392 89.5558 20.5359 89.8458 20.6602ZM47.5879 20.9778C47.6155 21.1435 47.6017 21.4473 47.5602 21.6269C47.4774 21.9445 47.4221 21.9583 46.3726 21.9583C45.3645 21.9583 45.2678 21.9859 45.2402 22.2345C45.185 22.9664 45.1712 22.9526 45.9721 22.9664C47.3807 23.0078 48.1817 24.0298 47.9607 25.5074C47.8503 26.2532 47.146 27.0127 46.4417 27.1508C45.8616 27.2613 43.804 27.1784 43.6659 27.0403C43.5278 26.9022 43.4725 26.0322 43.5968 25.8389C43.6797 25.7284 43.8454 25.7284 44.2873 25.8941C45.5716 26.336 46.3726 26.046 46.3726 25.1346C46.3726 24.3612 45.9583 24.0988 44.8811 24.2231C43.6935 24.3474 43.6935 24.3336 43.804 22.4416C43.8454 21.544 43.9283 20.7707 43.9697 20.7016C44.0111 20.6326 44.8397 20.5911 45.7926 20.6049C47.5188 20.6464 47.5464 20.6464 47.5879 20.9778ZM54.8656 20.7983C55.639 21.1573 55.8185 21.4612 55.8737 22.4831C55.9566 24.0574 55.2247 24.8584 53.7332 24.8584H53.0013L52.9737 25.5074C52.9599 25.8803 52.9461 26.3222 52.9461 26.5155C52.9184 27.0817 52.7665 27.206 52.0622 27.1784L51.4132 27.137L51.3717 24.0298C51.3579 22.3312 51.3717 20.8535 51.3994 20.7569C51.5098 20.4807 54.2718 20.5083 54.8656 20.7983ZM60.8729 22.0964C61.1491 22.9112 61.4115 23.6155 61.4529 23.6845C61.4943 23.7674 61.5772 24.0436 61.6324 24.306C61.6877 24.5684 61.7843 24.8446 61.8396 24.9274C61.9777 25.1069 62.5301 26.6951 62.5301 26.9022C62.5301 27.0127 62.2539 27.0679 61.7153 27.0679H60.9005L60.7348 26.3774L60.5691 25.6869H59.4229H58.2766L58.0971 26.3774L57.9176 27.0679H57.1166C56.6471 27.0679 56.3157 27.0127 56.3157 26.9298C56.3157 26.847 56.7161 25.6455 57.2133 24.2645C58.1247 21.7512 58.2905 21.2816 58.4424 20.8121C58.5114 20.6049 58.6633 20.5773 59.4505 20.6049L60.3619 20.6464L60.8729 22.0964ZM64.7396 23.8088V27.0403L64.0353 27.0955C63.6487 27.1094 63.3172 27.1094 63.2896 27.0679C63.2482 26.9989 63.1791 21.0192 63.2067 20.674C63.2205 20.6188 63.5658 20.5773 63.9801 20.5773H64.7396V23.8088ZM69.3107 20.7292C69.9873 20.9502 70.1807 21.1711 70.015 21.4888C69.9321 21.6407 69.8354 21.8616 69.794 22.0135C69.725 22.2069 69.6283 22.2483 69.3245 22.1655C68.5649 21.9583 67.6121 22.0135 67.4463 22.2621C67.253 22.5797 67.5706 22.8974 68.7307 23.4912C69.2692 23.7674 69.7112 24.0988 69.8631 24.3612C70.374 25.2036 70.084 26.4051 69.2416 26.916C68.7997 27.1922 68.5926 27.2336 67.4187 27.1784C65.9549 27.137 65.7063 26.9851 65.7063 26.1841C65.7063 25.4384 65.8306 25.3831 66.7835 25.7146C67.8468 26.0736 68.5373 25.9493 68.5373 25.4108C68.5373 25.1346 68.3578 24.9688 67.5154 24.5131C65.9549 23.6431 65.513 22.7593 66.0792 21.5854C66.4797 20.7292 68.054 20.3149 69.3107 20.7292ZM74.9313 22.1655C75.2213 22.994 75.4836 23.7398 75.5251 23.8226C75.5803 23.8917 75.7184 24.306 75.8565 24.7203C75.9808 25.1346 76.2156 25.8112 76.3813 26.2117C76.7265 27.0817 76.6575 27.1508 75.677 27.0955C75.0003 27.0403 75.0003 27.0403 74.807 26.4051L74.6136 25.756L73.495 25.7146L72.3764 25.6731L72.1969 26.3084C71.9898 27.0541 71.7964 27.1784 70.9126 27.0955C70.3602 27.0541 70.2635 26.9989 70.3464 26.8055C70.4293 26.5984 71.5617 23.4221 72.0174 22.0964C72.1279 21.7512 72.2798 21.4197 72.3488 21.3369C72.4179 21.2678 72.4731 21.0607 72.4731 20.895C72.4731 20.5773 72.5007 20.5635 73.4536 20.6049L74.4203 20.6464L74.9313 22.1655ZM83.8248 20.743C84.4462 20.9226 84.6119 21.185 84.3771 21.5578C84.2805 21.6959 84.2114 21.9169 84.2114 22.0412C84.2114 22.2207 84.1286 22.2483 83.7695 22.1655C82.43 21.8893 82.0571 21.9169 81.6014 22.3312C81.2147 22.6626 81.1595 22.8283 81.0904 23.6155C80.9523 25.2588 81.629 26.1012 82.9547 25.8941C84.2943 25.7008 84.2805 25.7008 84.2805 26.3084C84.2805 27.0679 83.9352 27.2198 82.3471 27.1784C80.8695 27.1232 80.3447 26.847 79.889 25.8389C79.4609 24.9274 79.4747 22.9526 79.889 22.1655C80.248 21.4888 80.828 20.9364 81.3804 20.743C81.9466 20.5497 83.1757 20.5497 83.8248 20.743ZM94.8035 21.1297C94.8864 21.3921 95.204 22.4002 95.494 23.3669C95.784 24.3474 96.0464 25.1346 96.0879 25.1346C96.1293 25.1346 96.2674 24.7479 96.4055 24.2645C96.5436 23.795 96.8888 22.7731 97.1512 21.9859L97.6484 20.5635L98.6289 20.6049L99.6093 20.6464L99.6508 23.8502L99.6784 27.0679L99.1951 27.0955C98.9327 27.1094 98.6012 27.1232 98.4769 27.1232C98.256 27.137 98.2146 26.9298 98.1593 25.0655L98.0903 22.994L97.4274 25.0241C97.0683 26.1427 96.7093 27.0679 96.6264 27.0955C96.5574 27.1232 96.2259 27.1232 95.9083 27.0955L95.3145 27.0403L95.0107 26.0598C94.845 25.5074 94.555 24.596 94.3754 24.0298L94.044 22.994L94.0302 25.0241L94.0164 27.0679H93.3259H92.6354V23.8226V20.5635L93.6297 20.6049L94.624 20.6464L94.8035 21.1297ZM28.6546 25.5074C28.6132 25.6455 28.5856 25.5627 28.5856 25.3417C28.5856 25.1069 28.6132 25.0103 28.6546 25.0931C28.6823 25.1898 28.6823 25.3831 28.6546 25.5074ZM78.4942 26.0322C78.6599 26.2808 78.6875 26.4603 78.5908 26.7503C78.4666 27.0955 78.3975 27.137 77.7899 27.137C77.1961 27.137 77.1132 27.0955 77.0027 26.7779C76.9337 26.557 76.9337 26.267 77.0165 26.0598C77.1408 25.7422 77.2375 25.6869 77.7208 25.6869C78.1489 25.6869 78.3147 25.756 78.4942 26.0322ZM27.0113 26.7641C27.0389 26.8608 26.9837 26.9022 26.8456 26.847C26.7213 26.8055 26.6246 26.6951 26.6246 26.626C26.6246 26.4465 26.9422 26.557 27.0113 26.7641ZM28.8756 27.427C28.8204 27.5927 28.7651 27.6065 28.6823 27.4684C28.558 27.2613 28.6546 27.0265 28.8342 27.137C28.9032 27.1784 28.917 27.3165 28.8756 27.427ZM27.8675 27.6203C27.8675 27.6894 27.8399 27.7584 27.8122 27.7584C27.7708 27.7584 27.7018 27.6894 27.6603 27.6203C27.6189 27.5375 27.6465 27.4822 27.7156 27.4822C27.7984 27.4822 27.8675 27.5375 27.8675 27.6203ZM39.4263 31.5147C39.3848 31.6114 39.3572 31.5423 39.3572 31.349C39.3572 31.1556 39.3848 31.0866 39.4263 31.1694C39.4539 31.2661 39.4539 31.4318 39.4263 31.5147ZM23.4483 31.8461C23.4483 31.9566 23.3931 32.0118 23.3103 31.9704C23.2412 31.929 23.1722 31.8323 23.1722 31.7494C23.1722 31.6804 23.2412 31.6252 23.3103 31.6252C23.3931 31.6252 23.4483 31.7218 23.4483 31.8461ZM22.0536 32.0533C22.2055 32.3157 22.2055 32.3433 21.9983 32.2604C21.874 32.219 21.7359 32.1776 21.7083 32.1776C21.6807 32.1776 21.6531 32.0809 21.6531 31.9704C21.6531 31.6804 21.8326 31.708 22.0536 32.0533ZM39.4401 32.0256C39.4815 32.1361 39.3987 32.1914 39.2467 32.1499C38.9291 32.0947 38.8186 31.7771 39.1363 31.8185C39.2744 31.8461 39.4125 31.929 39.4401 32.0256ZM37.9072 32.7576C37.8658 32.868 37.8243 32.8266 37.8243 32.6747C37.8105 32.5228 37.852 32.4399 37.8934 32.4952C37.9348 32.5366 37.9486 32.6609 37.9072 32.7576ZM37.4239 33.2547C37.0372 33.31 36.7057 33.1995 36.7057 33.02C36.7057 32.9509 36.9267 32.9647 37.2305 33.0476C37.6586 33.1857 37.6862 33.2271 37.4239 33.2547ZM38.0867 33.5033C38.0867 33.6138 38.0315 33.669 37.9486 33.6276C37.8796 33.5862 37.8105 33.4895 37.8105 33.4066C37.8105 33.3376 37.8796 33.2823 37.9486 33.2823C38.0315 33.2823 38.0867 33.379 38.0867 33.5033Z"
		fill="#757575" />
	<path
		d="M87.831 21.9592C87.1543 22.3735 86.9058 22.8706 86.9058 23.8235C86.9196 25.2321 87.6653 26.1021 88.7148 25.9088C89.6539 25.7292 90.2063 24.3621 89.8887 23.0087C89.6401 21.9592 88.6596 21.462 87.831 21.9592Z"
		fill="#757575" />
	<path
		d="M52.9453 22.4026C52.9039 22.6511 52.8901 23.0102 52.9177 23.2035C52.9591 23.5073 53.0144 23.5488 53.4977 23.5212C54.1053 23.4797 54.3815 23.2035 54.3815 22.6235C54.3815 22.1954 54.0501 21.9606 53.4287 21.9606C53.0696 21.9606 53.0005 22.0159 52.9453 22.4026Z"
		fill="#757575" />
	<path
		d="M59.2859 22.4443C59.2306 22.6652 59.1064 23.121 58.9959 23.4524C58.7197 24.2948 58.7335 24.3086 59.4378 24.3086H60.073L59.9764 23.8114C59.9349 23.5352 59.7692 23.0105 59.6311 22.6652L59.3826 22.03L59.2859 22.4443Z"
		fill="#757575" />
	<path
		d="M73.3846 22.4028C73.3432 22.4995 73.2327 22.8862 73.1084 23.259C72.777 24.2672 72.8046 24.3086 73.5089 24.3086C74.2408 24.3086 74.2408 24.281 73.8404 23.0933C73.5503 22.2233 73.4675 22.1128 73.3846 22.4028Z"
		fill="#757575" />
	<path
		d="M15.274 8.10928C15.3154 8.77215 15.274 8.9793 15.0254 9.28312C14.8459 9.53169 14.5835 9.66979 14.3625 9.6836C14.0311 9.6836 14.0173 9.69741 14.2659 9.79408C14.6111 9.93218 15.2464 9.72503 15.3568 9.43502C15.3983 9.32455 15.4811 8.88263 15.5226 8.45453C15.5778 8.01262 15.6745 7.58451 15.7573 7.48784C15.854 7.36356 15.7988 7.32213 15.5502 7.32213C15.2326 7.32213 15.2188 7.34975 15.274 8.10928Z"
		fill="#757575" />
	<path
		d="M18.8216 7.62677C18.794 7.72343 18.6974 8.2344 18.6145 8.77298C18.435 9.90538 18.145 10.3473 17.4959 10.4992L17.0264 10.6097L17.5926 10.6235C18.3383 10.6373 18.5454 10.3887 18.8216 9.11822C18.9459 8.55202 19.0978 7.97201 19.1669 7.84772C19.3464 7.51629 19.3464 7.46105 19.0978 7.46105C18.9735 7.46105 18.8631 7.54391 18.8216 7.62677Z"
		fill="#757575" />
	<path
		d="M12.2637 7.87362C12.2637 7.94267 12.3465 8.01172 12.457 8.01172C12.5675 8.01172 12.7056 7.94267 12.747 7.87362C12.7884 7.79076 12.7056 7.73552 12.5537 7.73552C12.388 7.73552 12.2637 7.79076 12.2637 7.87362Z"
		fill="#757575" />
	<path
		d="M7.42899 9.43627C4.1975 10.8587 0.800293 12.4882 0.800293 12.5987C0.800293 12.7921 1.03506 12.7092 2.81652 11.8668C3.79702 11.4111 4.79132 10.9415 5.01228 10.8449C5.24705 10.7482 5.99278 10.403 6.66946 10.0853C7.35995 9.76771 8.38187 9.32579 8.94807 9.09103C10.0667 8.64911 10.4119 8.42816 9.98381 8.42816C9.8319 8.42816 8.68569 8.88388 7.42899 9.43627Z"
		fill="#757575" />
	<path
		d="M12.5523 8.63392C12.5247 9.03441 12.2485 9.33822 11.7099 9.57299L11.2266 9.79395L11.7099 9.71109C12.3728 9.60061 12.718 9.25536 12.6352 8.75821C12.6075 8.50963 12.5661 8.46821 12.5523 8.63392Z"
		fill="#757575" />
	<path
		d="M22.4123 8.59174C22.3846 8.68841 22.1913 9.26842 22.0118 9.87605C21.6113 11.1466 21.3351 11.6023 20.9484 11.6023C20.8103 11.6023 20.686 11.6713 20.686 11.7542C20.686 11.837 20.8794 11.8785 21.1418 11.8509C21.5699 11.8094 21.6113 11.7542 22.1499 10.3594C22.4675 9.55843 22.7989 8.84032 22.8818 8.74365C23.1027 8.49507 23.0751 8.42603 22.7575 8.42603C22.6056 8.42603 22.4399 8.50888 22.4123 8.59174Z"
		fill="#757575" />
	<path
		d="M25.7132 10.5966C25.6027 10.8866 25.3403 11.5081 25.147 11.9914C24.7603 12.9305 24.4289 13.2619 23.8351 13.2619C23.3379 13.2619 23.3379 13.4829 23.8212 13.5795C24.567 13.7176 24.8017 13.4829 25.5475 11.9086C25.9203 11.0938 26.2932 10.4033 26.3623 10.3895C26.597 10.2928 26.4865 10.0857 26.2103 10.0857C26.0308 10.0857 25.8651 10.2514 25.7132 10.5966Z"
		fill="#757575" />
	<path
		d="M28.8481 12.4878C28.7653 12.5983 28.5029 13.054 28.2819 13.4959C27.7433 14.6145 27.5224 14.8216 26.9838 14.6974C26.749 14.6421 26.4176 14.5178 26.2519 14.4074C25.6857 14.0345 25.9204 14.4212 26.5005 14.8216C27.3981 15.4431 27.6881 15.3188 28.4338 14.0207C28.7929 13.4131 29.1796 12.8054 29.29 12.6811C29.4005 12.5568 29.4696 12.4187 29.4281 12.3773C29.2762 12.2392 29.0138 12.2806 28.8481 12.4878Z"
		fill="#757575" />
	<path
		d="M31.5133 15.1674C31.3614 15.2917 31.03 15.6645 30.7814 15.9822C30.3257 16.5898 29.7733 16.7693 29.4281 16.4241C29.3176 16.3136 29.2485 16.3136 29.1933 16.4241C29.1381 16.5069 29.1519 16.576 29.2347 16.576C29.3038 16.576 29.4004 16.7003 29.4557 16.8384C29.5524 17.1422 30.0909 17.2803 30.3671 17.0731C30.4776 16.9903 30.8367 16.576 31.1819 16.1617C31.5272 15.7474 31.8586 15.3607 31.9414 15.3055C32.0243 15.2364 32.0243 15.1536 31.9414 15.0707C31.8448 14.974 31.7067 15.0155 31.5133 15.1674Z"
		fill="#757575" />
	<path
		d="M32.4117 15.6758C32.6327 16.1177 33.2403 16.7944 33.2541 16.6149C33.2541 16.5182 33.0332 16.2144 32.757 15.9244C32.4808 15.6344 32.3289 15.5239 32.4117 15.6758Z"
		fill="#757575" />
	<path
		d="M31.9418 16.2987C31.8866 16.3816 31.9418 16.5335 32.0661 16.6163C32.1766 16.713 32.3699 17.0168 32.4942 17.293C32.6599 17.7211 32.6737 17.7902 32.508 17.7349C32.3975 17.6935 32.2733 17.7211 32.218 17.804C32.1628 17.9006 32.218 17.9145 32.3699 17.8592C32.5356 17.804 32.5771 17.8178 32.508 17.9283C32.4252 18.0526 32.4942 18.0526 32.7566 17.9283C33.088 17.7902 33.1018 17.7487 32.9085 17.5416C32.798 17.4173 32.7014 17.2654 32.7014 17.2102C32.7014 17.1549 32.5495 16.8925 32.3699 16.6301C32.1628 16.3125 32.0109 16.202 31.9418 16.2987Z"
		fill="#757575" />
	<path
		d="M33.4611 16.8924C33.4058 17.0305 33.392 17.1824 33.4473 17.2238C33.5854 17.3619 33.6959 17.1686 33.6268 16.8924C33.5716 16.6576 33.5716 16.6576 33.4611 16.8924Z"
		fill="#757575" />
	<path
		d="M31.2239 17.0589C31.0996 17.4041 31.2791 17.4594 31.4586 17.1417C31.5553 16.9346 31.5553 16.8517 31.4586 16.8517C31.3758 16.8517 31.2791 16.9484 31.2239 17.0589Z"
		fill="#757575" />
	<path
		d="M31.6647 17.2797C31.5266 17.4868 31.7061 17.6249 31.8857 17.4454C31.9823 17.3487 31.9823 17.2659 31.8995 17.2106C31.8166 17.1692 31.7061 17.1968 31.6647 17.2797Z"
		fill="#757575" />
	<path
		d="M31.0439 18.7848C31.0439 18.8538 31.113 18.9229 31.1959 18.9229C31.2649 18.9229 31.2925 18.8538 31.2511 18.7848C31.2097 18.7019 31.1406 18.6467 31.0992 18.6467C31.0716 18.6467 31.0439 18.7019 31.0439 18.7848Z"
		fill="#757575" />
	<path
		d="M31.5265 19.198C31.5817 19.2809 31.6784 19.3085 31.7474 19.2671C31.9407 19.1428 31.8993 19.06 31.6507 19.06C31.5403 19.06 31.485 19.129 31.5265 19.198Z"
		fill="#757575" />
	<path
		d="M26.9019 21.9445C26.9019 22.0826 27.1642 22.2897 27.2471 22.2207C27.2609 22.193 27.2057 22.0826 27.0952 21.9859C26.9847 21.8892 26.9019 21.8754 26.9019 21.9445Z"
		fill="#757575" />
	<path
		d="M27.0528 24.057C27.0804 24.4437 27.0804 24.4575 27.1356 24.1675C27.1771 23.9742 27.2737 23.7808 27.3704 23.7256C27.4671 23.6565 27.4395 23.6151 27.2876 23.6151C27.0942 23.6151 27.039 23.7256 27.0528 24.057Z"
		fill="#757575" />
	<path
		d="M25.5899 25.4117C25.5485 25.4808 25.6037 25.5498 25.7142 25.5498C25.8385 25.5498 25.9352 25.4808 25.9352 25.4117C25.9352 25.3288 25.8799 25.2736 25.8109 25.2736C25.728 25.2736 25.6314 25.3288 25.5899 25.4117Z"
		fill="#757575" />
	<path
		d="M24.7744 27.3305C24.7191 27.4271 24.7053 27.5376 24.7467 27.579C24.871 27.7033 25.0091 27.5238 24.9401 27.3305C24.8848 27.1786 24.8572 27.1786 24.7744 27.3305Z"
		fill="#757575" />
	<path
		d="M10.9508 29.4857C10.1637 29.6652 5.60645 31.0876 5.01263 31.35C4.77786 31.4467 4.79167 31.4743 5.16453 31.4743C5.38549 31.4881 6.5317 31.1705 7.69173 30.7838C10.4399 29.8724 12.4009 29.4995 13.7818 29.61C14.7347 29.6928 16.2952 30.1347 16.6129 30.4109C16.6819 30.4662 16.82 30.5214 16.9167 30.5214C17.2895 30.5214 18.781 31.7229 19.361 32.4824C19.9134 33.2143 20.0929 33.1315 19.582 32.3857C18.7396 31.1567 16.8752 29.9414 15.1352 29.4719C14.2376 29.2371 12.0694 29.2371 10.9508 29.4857Z"
		fill="#757575" />
	<path
		d="M21.5149 29.9017C21.6116 30.026 21.7221 30.0812 21.7497 30.0536C21.8463 29.9569 21.653 29.6945 21.4873 29.6945C21.4044 29.6945 21.4044 29.7774 21.5149 29.9017Z"
		fill="#757575" />
	<path
		d="M22.0679 29.8307C22.0679 29.8997 22.1369 29.9688 22.206 29.9688C22.2888 29.9688 22.3441 29.8997 22.3441 29.8307C22.3441 29.7478 22.2888 29.6926 22.206 29.6926C22.1369 29.6926 22.0679 29.7478 22.0679 29.8307Z"
		fill="#757575" />
	<path
		d="M19.8584 31.6275C19.8584 31.6966 19.9413 31.7656 20.0517 31.7656C20.1622 31.7656 20.3003 31.6966 20.3417 31.6275C20.3832 31.5447 20.3003 31.4894 20.1484 31.4894C19.9827 31.4894 19.8584 31.5447 19.8584 31.6275Z"
		fill="#757575" />
	<path
		d="M18.9044 32.7994C18.9044 32.9789 19.291 33.4899 19.3601 33.407C19.4015 33.3794 19.3049 33.1999 19.1668 33.0065C19.0148 32.8132 18.8906 32.7165 18.9044 32.7994Z"
		fill="#757575" />
	<path
		d="M39.8823 33.3811C39.8823 33.4363 39.9514 33.5882 40.0204 33.6987C40.1309 33.8782 40.1585 33.8782 40.1585 33.6711C40.1585 33.5468 40.1033 33.3949 40.0204 33.3535C39.9514 33.312 39.8823 33.312 39.8823 33.3811Z"
		fill="#757575" />
	<path
		d="M19.306 33.6988C19.306 33.7678 19.4165 33.9473 19.5546 34.0854C19.7065 34.2373 19.8584 34.5826 19.8998 34.8726C19.9827 35.3421 19.9689 35.3697 19.7894 35.135C19.6789 34.9831 19.5822 34.8035 19.5822 34.7345C19.5822 34.6516 19.4027 34.4169 19.1679 34.2097C18.8641 33.9197 18.7536 33.8645 18.7536 34.0302C18.7536 34.1545 18.8227 34.2512 18.9055 34.2512C18.9884 34.2512 19.0298 34.4169 19.0022 34.624C18.9746 34.9416 18.9055 34.9969 18.6569 34.9693C18.2841 34.914 18.2427 35.1764 18.5879 35.4388C18.8779 35.6598 18.7398 35.8117 18.0355 36.0464C17.5107 36.2121 17.3036 36.6264 17.6903 36.7783C17.8284 36.8336 17.8284 36.8612 17.6903 36.8612C17.5798 36.875 17.5107 37.0684 17.5107 37.3584C17.5107 37.8279 17.4969 37.8417 16.9583 37.8417C16.6545 37.8417 16.406 37.8831 16.406 37.9522C16.406 38.0074 16.6545 38.1593 16.9583 38.2974C17.6765 38.6012 17.6626 38.7117 16.9169 38.6012C16.3783 38.5184 16.3093 38.546 16.1298 38.8636C16.0193 39.0846 15.8259 39.2227 15.6326 39.2227C15.2735 39.2227 15.025 39.5817 15.025 40.0789C15.025 40.2722 14.9145 40.4517 14.7212 40.5346C14.4588 40.6451 14.4035 40.7694 14.4312 41.1975C14.4588 41.6808 14.445 41.7084 14.0169 41.7222C13.7683 41.7222 13.6578 41.7637 13.7545 41.8051C14.0307 41.9156 13.9478 42.0813 13.5749 42.178C13.2849 42.247 13.2573 42.3023 13.3678 42.5923C13.4645 42.8823 13.4368 42.9651 13.1192 43.1723C12.9259 43.2966 12.6635 43.407 12.5392 43.407C12.0282 43.3794 11.973 43.5037 12.3459 43.849C12.6911 44.1666 12.6911 44.1942 12.4287 44.1942C12.0006 44.1942 11.7106 44.3461 11.7106 44.5533C11.7106 44.6637 11.5863 44.7466 11.4344 44.7466C11.2825 44.7466 11.0754 44.9123 10.9649 45.1471C10.8406 45.368 10.6611 45.5752 10.5368 45.6166C10.4263 45.6718 10.3296 45.7823 10.3296 45.8652C10.3296 45.948 10.0811 46.3209 9.77725 46.68C9.47344 47.039 9.22486 47.3843 9.22486 47.4395C9.22486 47.4947 9.07295 47.6605 8.87962 47.8124C8.42389 48.1714 8.5758 48.4338 9.05914 48.1162C9.26629 47.9781 9.87392 47.6605 10.3987 47.3981C10.9373 47.1357 11.4206 46.8457 11.4759 46.7352C11.5311 46.6247 11.8349 46.5004 12.1387 46.459C12.5668 46.39 12.6497 46.3347 12.5254 46.1828C12.3459 45.9757 12.6359 45.7961 13.4092 45.658C13.6992 45.6028 13.9202 45.4785 13.9202 45.3818C13.9202 45.2852 14.1964 45.1195 14.5278 45.0228C14.9145 44.9123 15.1631 44.7604 15.2045 44.5947C15.2459 44.4152 15.3978 44.3323 15.6326 44.3323C15.8259 44.3323 16.1021 44.208 16.2264 44.0561C16.3645 43.9042 16.6131 43.7799 16.7788 43.7799C16.9583 43.7799 17.0964 43.7109 17.0964 43.628C17.0964 43.5313 17.2483 43.5037 17.4969 43.5451C17.9665 43.6418 18.2703 43.3794 18.1322 42.9651C18.0631 42.758 18.1322 42.6751 18.4636 42.6061C18.6984 42.5508 18.947 42.5646 19.0298 42.6061C19.2646 42.758 19.8584 42.5508 19.8584 42.3299C19.8584 42.2056 19.9413 42.1642 20.0655 42.2056C20.2036 42.2608 20.2727 42.2056 20.2727 42.0123C20.2727 41.6118 20.5213 41.5013 20.5765 41.8742L20.6179 42.1918L20.8251 41.8465C20.9494 41.6118 21.0322 40.9351 21.0737 39.7751C21.1151 38.2836 21.0737 37.8555 20.7837 36.6679C20.397 35.0936 19.9136 33.9335 19.5546 33.7126C19.4027 33.6159 19.306 33.6159 19.306 33.6988Z"
		fill="#757575" />
	<path
		d="M39.7036 34.4973C39.5931 34.6492 39.7588 35.3535 39.8969 35.3535C40.0764 35.3535 40.0488 34.9807 39.8693 34.8702C39.7864 34.8149 39.7588 34.6906 39.8002 34.5802C39.8831 34.373 39.8002 34.3178 39.7036 34.4973Z"
		fill="#757575" />
	<path
		d="M35.6021 34.6646C35.6021 34.7337 35.6573 34.8027 35.7263 34.8027C35.8092 34.8027 35.9059 34.7337 35.9473 34.6646C35.9887 34.5818 35.9335 34.5265 35.823 34.5265C35.6987 34.5265 35.6021 34.5818 35.6021 34.6646Z"
		fill="#757575" />
	<path
		d="M34.2202 35.7682C34.2202 35.8372 34.2893 35.9062 34.3721 35.9062C34.4412 35.9062 34.4688 35.8372 34.4274 35.7682C34.3859 35.6853 34.3169 35.6301 34.2755 35.6301C34.2478 35.6301 34.2202 35.6853 34.2202 35.7682Z"
		fill="#757575" />
	<path
		d="M31.8716 36.3925C31.8716 36.5306 32.0097 36.5996 32.2306 36.5996C32.5345 36.5996 32.5759 36.572 32.424 36.3925C32.3273 36.282 32.1616 36.1853 32.0649 36.1853C31.9544 36.1853 31.8716 36.282 31.8716 36.3925Z"
		fill="#757575" />
	<path
		d="M0.827929 44.7054C0.800309 49.5388 0.869358 50.685 1.13174 49.6493C1.18698 49.4559 1.18698 49.235 1.14555 49.1659C1.09031 49.0831 1.13174 49.0278 1.20079 49.0278C1.28365 49.0278 1.3527 49.0692 1.3527 49.1383C1.3527 49.1935 1.75318 49.2626 2.25034 49.2764C2.99607 49.3178 3.14797 49.2902 3.14797 49.1107C3.14797 48.7931 4.10085 48.8069 4.33562 49.1245C4.47371 49.3178 4.57038 49.3454 4.76372 49.2212C5.03992 49.0554 5.61993 48.9035 6.36566 48.8069C7.49806 48.6688 8.05045 48.5307 8.03664 48.4064C8.00902 48.1992 7.35996 47.8264 6.08946 47.3016C5.75803 47.1635 5.49564 46.9702 5.49564 46.8735C5.49564 46.7768 5.35754 46.6802 5.19182 46.6525C5.0123 46.6249 4.88801 46.5421 4.90182 46.4592C4.91563 46.3763 4.40466 46.0449 3.7556 45.7273C3.10654 45.3958 2.41605 44.9816 2.20891 44.7882L1.83604 44.443L1.76699 44.8296C1.68414 45.2992 1.44937 45.0644 1.51842 44.5673C1.53223 44.4015 1.4908 44.2634 1.42175 44.2634C1.33889 44.2634 1.29746 44.3049 1.32508 44.3601C1.3527 44.4568 1.10412 44.5258 1.0627 44.4292C1.04889 44.4153 0.993646 43.2829 0.952217 41.9158C0.869358 39.7753 0.841739 40.1619 0.827929 44.7054Z"
		fill="#757575" />
	<path
		d="M12.7462 42.1217C12.7047 42.1907 12.76 42.2598 12.8705 42.2598C12.9948 42.2598 13.0914 42.1907 13.0914 42.1217C13.0914 42.0388 13.0362 41.9836 12.9671 41.9836C12.8843 41.9836 12.7876 42.0388 12.7462 42.1217Z"
		fill="#757575" />
	<path
		d="M37.8795 48.4348C37.9762 50.2162 38.2247 50.4648 38.2247 48.7938C38.2247 47.4957 38.1557 47.0952 37.9209 47.0952C37.8519 47.0952 37.8242 47.6338 37.8795 48.4348Z"
		fill="#757575" />
	<path
		d="M35.9464 48.4078C35.8774 48.4354 35.4493 48.532 35.0212 48.6149L34.2202 48.7668V49.3882C34.2202 50.1202 34.4688 50.203 34.524 49.4849L34.5655 48.9601L35.5736 48.7668C36.1122 48.6701 36.5679 48.532 36.5679 48.463C36.5679 48.3387 36.2226 48.3111 35.9464 48.4078Z"
		fill="#757575" />
	<path
		d="M8.5332 49.3053C8.5332 49.7058 8.75416 50.1063 8.89226 49.9544C8.9475 49.9129 8.87845 49.6644 8.76797 49.4158C8.54701 48.9877 8.5332 48.9877 8.5332 49.3053Z"
		fill="#757575" />
	<path
		d="M31.7074 49.2464C31.0722 49.4397 30.796 49.6469 30.9617 49.8126C31.0031 49.854 31.2379 49.7988 31.4865 49.6745C31.7351 49.564 32.1079 49.4121 32.3151 49.3707C32.536 49.3154 32.6603 49.2187 32.6189 49.1497C32.536 48.9978 32.5084 48.9978 31.7074 49.2464Z"
		fill="#757575" />
</svg>