<svg width="200" height="30" viewBox="0 0 200 30" fill="none" xmlns="http://www.w3.org/2000/svg">
	<path
		d="M28.8387 0.121828C26.1601 0.746828 24.7092 3.76022 25.8699 6.26021C27.2762 9.29592 31.2047 9.67539 33.3476 6.9745C34.5753 5.412 34.3521 2.4879 32.9012 1.21558C31.8297 0.278078 30.111 -0.190671 28.8387 0.121828Z"
		fill="#757575" />
	<path
		d="M162.41 0.142646C161.227 0.432823 160.134 1.28104 159.576 2.39711C158.928 3.66942 159.04 5.74531 159.821 6.90603C161.138 8.82566 163.995 9.36138 165.893 8.02209C167.701 6.74978 168.281 4.56228 167.343 2.50871C166.473 0.611395 164.486 -0.326103 162.41 0.142646Z"
		fill="#757575" />
	<path
		d="M46.786 0.701635C42.9021 1.57217 39.7548 4.16145 37.7236 8.1793C36.4959 10.59 36.4066 11.4159 36.3843 20.8132V29.3623H39.7325H43.0807V21.2596C43.0807 12.2641 43.1253 11.8847 44.5539 9.94269C47.5227 5.83556 53.0584 6.5052 55.5137 11.282L56.1387 12.5097L56.2057 20.9248L56.2726 29.3623H59.6208H62.9467V21.0811C62.9467 12.3757 62.8351 11.0364 61.8083 8.67037C60.2905 5.14359 56.9423 2.04092 53.5048 0.991814C51.5628 0.389135 48.6834 0.277529 46.786 0.701635Z"
		fill="#757575" />
	<path
		d="M11.5178 1.25967C6.89731 1.92931 2.94643 5.2552 1.00446 10.0989C0.200893 12.0632 0 14.5186 0 22.2641V29.3623H3.45982H6.91963V25.9025V22.4427H13.6161H20.3125V19.0945V15.7463L13.683 15.7016L7.03124 15.6346L7.07588 14.3623C7.14285 12.1079 8.52678 9.92037 10.692 8.64805L11.7187 8.04538L17.5893 7.97841L23.4598 7.91145L23.3928 4.51859L23.3259 1.12574L18.0803 1.10342C15.2009 1.0811 12.2321 1.14807 11.5178 1.25967Z"
		fill="#757575" />
	<path
		d="M65.6926 1.28164C65.8712 1.68343 68.9515 9.40663 71.5408 15.9691C75.581 26.1923 75.9158 26.9736 76.4961 27.7995C77.2328 28.8039 78.2595 29.4959 79.5319 29.853C80.8711 30.2102 82.2997 29.7861 83.572 28.67C84.6211 27.7325 85.0229 27.0182 86.2283 23.7816C87.5006 20.4111 91.072 10.9691 91.2283 10.612C91.2952 10.4334 91.5854 9.67449 91.8756 8.93788C93.1033 5.70128 93.7506 3.91557 94.2863 2.50932L94.8443 1.01379H91.2283H87.5899L87.1881 2.06289C86.9649 2.66557 86.4961 3.89325 86.1613 4.80842C85.1345 7.53164 84.264 9.83074 82.8131 13.6254C82.0542 15.5897 81.2729 17.6655 81.072 18.2459C80.4247 20.1655 80.7819 20.8575 75.6033 7.71021C74.331 4.45128 73.2149 1.61647 73.1479 1.39325C73.014 1.05843 72.6345 1.01379 69.2863 1.01379C66.4069 1.01379 65.6033 1.08075 65.6926 1.28164Z"
		fill="#757575" />
	<path
		d="M100 4.47506V7.93488H105.759C111.897 7.93488 112.366 8.00184 113.147 9.11791C113.683 9.85452 114.375 11.5063 114.196 11.6626C114.129 11.7295 111.875 11.8411 109.219 11.8858C104.911 11.9527 104.196 12.0197 102.946 12.4438C101.049 13.1134 99.4196 14.5867 98.4152 16.5509C97.6786 18.0241 97.6562 18.1581 97.6562 20.6581C97.6562 23.0018 97.7009 23.3366 98.2812 24.475C99.0848 26.1268 100.781 27.8232 102.388 28.6268L103.683 29.2518L109.777 29.3188L115.848 29.3857V26.0375V22.667H110.759C105.112 22.667 104.933 22.6224 104.464 21.2384C104.152 20.2563 104.643 18.9393 105.402 18.7608C105.692 18.6938 108.371 18.6715 111.362 18.6938L116.808 18.7608L118.638 24.0063L120.491 29.2518L124.085 29.3188C126.071 29.3411 127.679 29.3411 127.679 29.2965C127.679 29.2295 125.759 23.6938 123.504 17.3099C122.701 15.0331 121.875 12.6224 121.652 11.9527C120.022 7.04202 119.397 5.85899 117.277 3.93935C115.737 2.5331 113.929 1.5956 112.165 1.26078C111.451 1.12685 108.415 1.01524 105.424 1.01524H100V4.47506Z"
		fill="#757575" />
	<path
		d="M172.322 4.45162V7.93376H178.192C185.067 7.93376 185.134 7.95608 186.072 10.0766C186.384 10.7686 186.585 11.4382 186.54 11.5721C186.496 11.7284 184.71 11.84 181.496 11.8846C177.232 11.9739 176.34 12.0409 175.335 12.4204C167.947 15.1882 168.103 26.3489 175.558 28.9159C176.719 29.3177 177.433 29.3623 182.523 29.3623H188.17V26.0141V22.6659H183.081C177.411 22.6659 177.21 22.6212 176.808 21.1927C176.563 20.2998 176.741 19.6302 177.389 19.0275C177.79 18.6704 178.348 18.648 183.505 18.6927L189.152 18.7596L189.911 20.8802C190.313 22.0409 190.893 23.6927 191.183 24.5632C191.496 25.4114 191.987 26.8177 192.277 27.6882L192.835 29.2507L196.429 29.3177C198.393 29.34 200 29.2953 200 29.1837C200 28.9828 193.661 10.8132 192.723 8.31322C191.63 5.43376 189.219 2.95608 186.295 1.7284C184.956 1.14805 184.822 1.14805 178.639 1.05876L172.322 0.969479V4.45162Z"
		fill="#757575" />
	<path
		d="M148.817 1.99627C146.429 2.97841 144.688 4.36234 143.415 6.25966C142.679 7.37573 142.032 8.87126 140.514 13.0677C137.657 20.8802 137.657 20.8579 136.072 22.0186C135.246 22.6436 135.09 22.6659 132.768 22.6659H130.357V26.0141V29.3623H133.215C137.21 29.3623 138.884 28.8043 141.206 26.6837C143.304 24.7641 143.639 24.1391 146.206 17.0855C148.929 9.63019 148.906 9.69715 150.67 8.62572C151.34 8.22394 151.808 8.15697 154.197 8.15697H156.92V4.80877V1.46056H153.527C150.447 1.46056 149.978 1.52752 148.817 1.99627Z"
		fill="#757575" />
	<path d="M26.3398 20.0989V29.3623H29.7997H33.2595V20.0989V10.8355H29.7997H26.3398V20.0989Z" fill="#757575" />
	<path d="M160.044 20.0989V29.3623H163.504H166.964V20.0989V10.8355H163.504H160.044V20.0989Z" fill="#757575" />
</svg>