<svg width="198" height="60" viewBox="0 0 198 60" fill="none" xmlns="http://www.w3.org/2000/svg">
	<path
		d="M25.2578 3.87661C23.6618 5.99066 22.3354 7.81455 22.2939 7.89745C22.2525 8.00108 24.9261 8.08398 28.2423 8.08398C31.5585 8.08398 34.2736 8.04253 34.2736 7.98035C34.2736 7.91818 33.6518 7.04768 32.9057 6.05284C32.1595 5.05799 30.8331 3.29628 29.9626 2.13562C29.0921 0.954238 28.3252 0.000842094 28.263 0.000842094C28.2008 0.000842094 26.8537 1.74183 25.2578 3.87661Z"
		fill="#757575" />
	<path
		d="M64.5322 29.949V52.2295H131.166H197.8V29.949V7.66856H131.166H64.5322V29.949ZM87.9526 11.793C87.9526 12.933 88.0355 12.8915 85.6313 13.161C83.8903 13.3475 82.7297 14.0107 82.398 15.0056C82.1908 15.6481 82.1493 18.8813 82.1908 29.7625C82.253 43.3588 82.253 43.7111 82.6675 44.25C83.2064 44.9754 84.6986 45.5557 86.4603 45.763L87.849 45.9081L87.9112 46.9858L87.9733 48.0843H77.6103H67.2266V46.9651V45.8666L69.0712 45.763C71.1231 45.6386 72.1387 45.2034 72.5739 44.25C72.9677 43.4002 72.9263 15.9797 72.5325 15.047C72.1801 14.218 71.0195 13.5962 69.0919 13.2439C68.3458 13.1195 67.6204 12.9744 67.496 12.933C67.3302 12.8915 67.2266 12.477 67.2266 11.8138V10.7775H77.5896H87.9526V11.793ZM114.689 11.8138C114.689 12.9744 114.876 12.8708 112.223 13.2231C110.606 13.4511 109.798 13.8656 109.363 14.7361C109.155 15.1299 109.114 18.4461 109.155 29.5967L109.197 43.9805L109.86 44.5609C110.627 45.2448 111.56 45.5557 113.404 45.7422L114.689 45.8666V46.9651V48.0843H104.305H93.9424L94.0046 46.9858L94.0668 45.9081L95.8492 45.763C97.8182 45.6179 98.7509 45.2656 99.2897 44.4158C99.6421 43.8976 99.6628 42.8613 99.6628 29.6381C99.6628 16.2077 99.6421 15.3994 99.2897 14.8398C98.8338 14.1765 97.6109 13.5755 96.015 13.2646C95.3933 13.1402 94.6886 12.9951 94.4399 12.933C94.0253 12.8501 93.9632 12.705 93.9632 11.8138V10.7775H104.326H114.689V11.8138ZM154.483 15.7517V20.726H153.468H152.431L151.913 19.586C150.877 17.3062 148.638 14.6118 147.125 13.8242C146.359 13.4097 145.903 13.3682 141.073 13.306L135.83 13.2231V20.498V27.7728H138.172C143.001 27.7728 144.514 26.8401 145.778 23.1923L146.379 21.4514L147.333 21.3892L148.265 21.327V29.0993V36.8922H147.25H146.255L146.131 36.0632C145.985 34.8818 144.472 31.8973 143.768 31.3791C142.628 30.5294 141.322 30.2599 138.483 30.2599H135.83V36.8715C135.83 43.3795 135.83 43.4624 136.306 44.1671C136.845 44.9547 138.172 45.535 139.975 45.763L141.115 45.9081V46.9444V47.9807L131.125 48.0428L121.114 48.0843V46.9858V45.8666L122.669 45.7422C124.638 45.5764 125.798 45.0168 126.213 44.022C126.462 43.4209 126.503 41.1411 126.462 29.348C126.399 15.5444 126.399 15.3579 125.964 14.7776C125.405 14.0314 124.43 13.5755 122.648 13.2024L121.218 12.9122L121.156 11.8552L121.094 10.7775H137.778H154.483V15.7517ZM180.391 11.8138C180.391 12.9744 180.453 12.933 178.256 13.161C176.618 13.3475 175.686 13.762 175.209 14.5703C174.795 15.2128 174.795 15.5859 174.836 29.3687C174.898 43.3588 174.898 43.5038 175.333 44.0842C176.287 45.3692 176.784 45.4935 181.012 45.4935C185.759 45.4935 186.919 45.2656 188.184 44.1049C189.261 43.11 190.774 40.8095 192.122 38.0736L193.137 36.0632H194.111H195.106L195.002 36.8301C194.961 37.2653 194.816 39.4415 194.692 41.6592C194.567 43.8769 194.422 46.2397 194.36 46.9029L194.236 48.0843L177.116 48.0428L159.975 47.9807V46.9444V45.9081L161.53 45.763C163.665 45.535 164.867 44.9132 165.219 43.8562C165.426 43.2137 165.468 39.9804 165.426 29.0993L165.364 15.1714L164.846 14.6118C164.245 13.9693 163.292 13.534 161.841 13.2439C159.706 12.8293 159.872 12.9537 159.872 11.8138V10.7775H170.131H180.391V11.8138Z"
		fill="#757575" />
	<path
		d="M9.9609 9.78422C10.6449 10.6133 11.847 12.1884 12.6553 13.2662C13.4843 14.3439 14.417 15.5461 14.7279 15.9398L15.3289 16.6445L17.4844 13.7843C18.6865 12.2299 20.0959 10.3438 20.6348 9.61841L21.6296 8.29195H15.1839H8.75879L9.9609 9.78422Z"
		fill="#757575" />
	<path
		d="M38.0444 12.4579L41.1947 16.6445L41.7958 15.9398C42.1067 15.5461 42.915 14.5305 43.5575 13.6807C44.2 12.8309 45.4229 11.2558 46.2519 10.2195L47.7649 8.29195H41.3398H34.894L38.0444 12.4579Z"
		fill="#757575" />
	<path
		d="M26.5213 11.4408C25.6301 12.9538 24.6767 14.529 24.428 14.9227C24.1793 15.3165 23.827 15.8969 23.6197 16.2078L23.2881 16.7881H28.2416H33.2158L32.6562 15.8347C32.3454 15.3165 31.9308 14.6119 31.7443 14.2802C31.537 13.9486 31.2054 13.4097 31.0189 13.0574C29.3401 10.2387 28.3867 8.70494 28.2831 8.70494C28.2002 8.70494 27.4126 9.9485 26.5213 11.4408Z"
		fill="#757575" />
	<path
		d="M7.12207 16.911C7.12207 17.0354 9.96153 21.9267 10.3553 22.4863C10.5211 22.6936 10.6662 22.8387 10.7077 22.7765C11.288 22.1133 14.8529 17.2634 14.9358 17.0561C15.0187 16.8489 14.2518 16.7867 11.0807 16.7867C8.90451 16.7867 7.12207 16.8489 7.12207 16.911Z"
		fill="#757575" />
	<path
		d="M15.5371 17.0363C15.7029 17.3057 18.418 20.8084 19.247 21.824L19.7237 22.4043L20.2004 21.6167C20.6771 20.8291 20.7808 20.6633 21.5891 19.2332C21.8171 18.8187 22.2523 18.0933 22.5632 17.6373L23.0813 16.7875H19.247C16.2832 16.7875 15.4334 16.8497 15.5371 17.0363Z"
		fill="#757575" />
	<path
		d="M34.9359 19.2136C35.7442 20.5608 36.5111 21.8251 36.6562 22.0117C36.8634 22.3433 37.1329 22.0738 38.8531 19.8561C39.9309 18.4882 40.8843 17.2239 40.9672 17.0789C41.1123 16.8302 40.4697 16.7887 37.2987 16.7887H33.4644L34.9359 19.2136Z"
		fill="#757575" />
	<path
		d="M41.5672 17.0143C41.6709 17.3252 45.7539 22.7761 45.8782 22.7969C45.9404 22.7969 46.2928 22.2995 46.6451 21.6984C46.9974 21.1181 47.8058 19.7502 48.4275 18.6931L49.5675 16.7863H45.5259C42.7072 16.7863 41.5051 16.8485 41.5672 17.0143Z"
		fill="#757575" />
	<path
		d="M27.496 18.2786C27.04 18.8797 26.3353 19.9367 25.9001 20.6206C25.4856 21.3046 24.9881 22.0715 24.8016 22.3202L24.4907 22.7969H28.2214C31.6205 22.7969 31.9728 22.7554 31.8485 22.4653C31.7241 22.1336 28.8017 17.6983 28.4701 17.3459C28.3872 17.2423 27.9312 17.6568 27.496 18.2786Z"
		fill="#757575" />
	<path
		d="M0.0131597 23.0483C0.780022 24.0224 4.19981 28.5407 4.53143 29.0381C4.75942 29.3697 5.04958 29.6806 5.19466 29.7221C5.33974 29.7842 5.75426 29.3904 6.14806 28.8516C6.54185 28.3127 7.66106 26.8204 8.65591 25.5354C9.63003 24.2297 10.3762 23.0897 10.314 22.9861C10.2518 22.8825 7.88904 22.7996 5.00813 22.7996C0.883652 22.7996 -0.131922 22.8617 0.0131597 23.0483Z"
		fill="#757575" />
	<path
		d="M10.853 23.0692C10.853 23.2351 11.7442 24.831 12.822 26.6548C13.8998 28.458 14.791 30.0332 14.791 30.1368C14.791 30.427 15.3713 29.8467 15.6822 29.2456C15.848 28.9554 16.6149 27.5875 17.4232 26.2196C18.2108 24.8517 18.9776 23.5252 19.1227 23.2558L19.3714 22.7998H15.1019C11.7028 22.7998 10.853 22.862 10.853 23.0692Z"
		fill="#757575" />
	<path
		d="M20.2199 23.1509C20.3857 23.3582 20.9039 24.0214 21.4013 24.6224L22.2925 25.7002L22.7899 24.9748C23.0594 24.5603 23.2874 24.1665 23.2874 24.0628C23.2874 23.9799 23.4739 23.7312 23.7019 23.524C23.9299 23.3167 24.1164 23.068 24.1164 22.9644C24.1164 22.8815 23.163 22.7986 22.0024 22.7986C20.0334 22.7986 19.9298 22.8193 20.2199 23.1509Z"
		fill="#757575" />
	<path
		d="M33.2772 24.1451C33.7747 24.8705 34.2514 25.4509 34.355 25.4301C34.4586 25.3887 34.9975 24.7876 35.5571 24.0829L36.5934 22.7979H34.5001H32.4067L33.2772 24.1451Z"
		fill="#757575" />
	<path
		d="M37.4015 23.2556C37.7953 24.0225 41.153 29.7221 41.3809 30.0123C41.5882 30.2817 41.7747 30.033 42.8318 28.1884C43.5779 26.8619 44.0131 26.1158 44.8007 24.8101C45.2774 24.0432 45.6712 23.2763 45.6712 23.1105C45.6712 22.8411 45.0287 22.7996 41.4224 22.7996H37.1528L37.4015 23.2556Z"
		fill="#757575" />
	<path
		d="M46.2108 22.9836C46.0865 23.1908 50.9778 29.7402 51.268 29.7402C51.4131 29.7402 54.8121 25.4292 56.2837 23.3566L56.6775 22.797H51.496C48.6565 22.797 46.273 22.8799 46.2108 22.9836Z"
		fill="#757575" />
	<path
		d="M27.3921 24.4975L26.646 25.8032L27.4543 25.8654C27.8896 25.9068 28.6357 25.9068 29.0709 25.8654L29.8793 25.8032L29.1331 24.4975C28.7186 23.7928 28.3248 23.2125 28.2626 23.2125C28.2004 23.2125 27.8067 23.7928 27.3921 24.4975Z"
		fill="#757575" />
	<path
		d="M18.1069 26.2176C18.1069 26.2798 18.5007 27.0052 18.9567 27.8549L19.8272 29.3887L20.6977 28.0622C22.0656 26.0103 22.1071 26.114 19.9723 26.114C18.936 26.114 18.1069 26.1554 18.1069 26.2176Z"
		fill="#757575" />
	<path
		d="M22.7902 26.3633C23.7644 27.9799 24.9457 29.0991 24.9457 28.3944C24.9457 28.2908 25.2152 27.7312 25.5675 27.1509L26.1686 26.1146H24.4069C23.0597 26.1146 22.6866 26.1768 22.7902 26.3633Z"
		fill="#757575" />
	<path
		d="M30.957 27.1488C31.3094 27.7292 31.5788 28.2888 31.5788 28.3924C31.5788 29.1385 32.7187 28.0608 33.7343 26.3612C33.8379 26.1747 33.4649 26.1125 32.1177 26.1125H30.356L30.957 27.1488Z"
		fill="#757575" />
	<path
		d="M34.8115 26.3613C34.8944 26.5064 35.3297 27.211 35.8064 27.9364L36.6562 29.2422L37.0292 28.7448C37.2365 28.4753 37.6925 27.7706 38.0241 27.1903L38.6251 26.1126H36.6562C35.1224 26.1126 34.6872 26.1747 34.8115 26.3613Z"
		fill="#757575" />
	<path
		d="M20.9467 29.6793C21.1955 29.9488 21.7136 30.5291 22.1281 30.9644C22.5426 31.4203 22.895 31.7519 22.9364 31.6898C22.9779 31.6483 23.3095 31.068 23.6826 30.4048L24.3458 29.2234H22.439H20.5322L20.9467 29.6793Z"
		fill="#757575" />
	<path
		d="M26.4993 31.2946C27.3698 32.4345 28.1574 33.3672 28.261 33.3672C28.3646 33.3672 29.1522 32.4345 30.0227 31.2946L31.5979 29.222H28.261H24.9448L26.4993 31.2946Z"
		fill="#757575" />
	<path
		d="M32.8415 30.4069C33.2145 31.0702 33.5461 31.6505 33.5876 31.7127C33.6705 31.7956 35.9296 29.495 35.9296 29.3292C35.9296 29.267 35.0799 29.2255 34.0436 29.2255H32.1782L32.8415 30.4069Z"
		fill="#757575" />
	<path
		d="M18.5421 31.6899C17.8374 32.7262 17.2778 33.6174 17.2778 33.6796C17.2778 33.7418 18.3141 33.7832 19.5577 33.7832C21.2365 33.7832 21.8376 33.721 21.8376 33.5138C21.8376 33.3894 21.3816 32.4982 20.822 31.5448L19.8064 29.8245L18.5421 31.6899Z"
		fill="#757575" />
	<path
		d="M35.6602 31.7728C35.1213 32.7262 34.686 33.5759 34.686 33.6381C34.686 33.721 35.7223 33.7832 36.9659 33.7832C38.2302 33.7832 39.2458 33.7418 39.2458 33.6796C39.2458 33.493 36.883 30.0525 36.7586 30.0525C36.6757 30.0525 36.199 30.8401 35.6602 31.7728Z"
		fill="#757575" />
	<path
		d="M4.90403 30.9436C4.67605 31.1924 3.47394 32.7468 2.2511 34.4049L0.0126953 37.4102L5.25638 37.4723C8.13729 37.4931 10.5415 37.4723 10.583 37.4309C10.6451 37.3687 10.0855 36.6018 9.36013 35.6899C8.65544 34.778 7.86785 33.7831 7.63987 33.4722C7.41188 33.1406 6.7901 32.353 6.27195 31.6898L5.31855 30.4877L4.90403 30.9436Z"
		fill="#757575" />
	<path
		d="M50.1289 31.8349C49.5693 32.581 48.9683 33.3479 48.8439 33.5344C48.6988 33.7209 47.9734 34.6743 47.2273 35.6484L45.8594 37.4102L51.0823 37.4723C53.9632 37.4931 56.3467 37.4723 56.4089 37.4309C56.4504 37.3687 55.9529 36.6226 55.2897 35.7521C54.6058 34.8816 53.7353 33.6795 53.3207 33.0991C52.8855 32.4981 52.243 31.6691 51.8699 31.2545L51.1652 30.4669L50.1289 31.8349Z"
		fill="#757575" />
	<path
		d="M12.9883 34.1562L11.0815 37.4102L14.9366 37.4723C17.0506 37.4931 18.8331 37.4723 18.8745 37.4309C18.9367 37.3894 18.7916 37.0785 18.5636 36.7469C17.9626 35.8764 15.6205 31.8763 15.6205 31.7105C15.6205 31.6276 15.4547 31.4203 15.2682 31.2338C14.9159 30.9436 14.7708 31.1302 12.9883 34.1562Z"
		fill="#757575" />
	<path
		d="M41.2988 31.2342C41.0293 31.5865 40.7185 32.0839 40.2003 33.0581C39.5578 34.2394 38.107 36.6229 37.8375 36.9545C37.651 37.1411 37.5681 37.3483 37.6303 37.4105C37.6925 37.4727 39.4749 37.4934 41.5889 37.4727L45.444 37.4105L44.2833 35.4415C42.6874 32.7472 42.3351 32.1047 42.0035 31.4414C41.6511 30.7782 41.6718 30.7782 41.2988 31.2342Z"
		fill="#757575" />
	<path
		d="M22.6241 32.7901C22.4583 33.0595 22.2303 33.4533 22.1059 33.6813C21.6292 34.4689 20.0748 37.2047 20.0126 37.3498C19.9711 37.4534 20.8831 37.5156 22.023 37.5156C23.7018 37.5156 24.1163 37.4534 24.1163 37.2255C24.1163 37.0597 24.0334 36.8731 23.9298 36.8109C23.7225 36.6866 22.251 34.1166 22.251 33.9093C22.251 33.8471 22.7277 33.7849 23.308 33.7849H24.3651L23.764 33.0803C23.0593 32.2305 22.9557 32.189 22.6241 32.7901Z"
		fill="#757575" />
	<path
		d="M32.8421 33.0371L32.1167 33.7832H33.1945C34.3758 33.7832 34.5416 33.5552 33.8991 32.7676L33.5468 32.3117L32.8421 33.0371Z"
		fill="#757575" />
	<path
		d="M24.9868 33.9905C25.049 34.1978 28.3029 37.5554 28.3444 37.4518C28.3651 37.431 29.1527 36.5813 30.1268 35.5864L31.8885 33.7832H28.3858C26.2718 33.7832 24.9453 33.8662 24.9868 33.9905Z"
		fill="#757575" />
	<path
		d="M33.444 35.5674C32.9258 36.4586 32.4906 37.2462 32.4491 37.3291C32.4077 37.4327 33.3196 37.5156 34.4595 37.5156C35.6202 37.5156 36.5529 37.4742 36.5529 37.4327C36.5529 37.3705 36.2212 36.7488 35.8067 36.0234C35.4129 35.2979 34.9984 34.5933 34.9155 34.4274C34.6046 33.8264 34.3559 34.0129 33.444 35.5674Z"
		fill="#757575" />
	<path
		d="M9.40193 40.2707C8.57289 41.6594 7.72312 43.048 7.51586 43.3589C7.28788 43.6698 7.12207 43.9807 7.12207 44.0429C7.12207 44.105 9.02886 44.1465 11.3709 44.1465C13.7129 44.1465 15.6197 44.0843 15.6197 44.0221C15.6197 43.9185 14.8736 42.9444 11.5574 38.6126L10.8735 37.7214L9.40193 40.2707Z"
		fill="#757575" />
	<path
		d="M26.4598 37.8851L24.7603 37.9472L25.3613 38.9214C25.6722 39.4602 26.4805 40.8074 27.123 41.9266L28.3044 43.9785L28.8433 43.0666C29.1334 42.5899 29.9003 41.2427 30.5843 40.1235C31.2475 38.9835 31.7656 38.0509 31.7449 38.0094C31.6206 37.9265 28.0971 37.8229 26.4598 37.8851Z"
		fill="#757575" />
	<path
		d="M45.1546 38.3225C44.9266 38.6541 43.8696 40.0635 42.8333 41.4314C41.7763 42.7993 40.9058 43.96 40.9058 44.0221C40.9058 44.0843 42.8126 44.1465 45.1546 44.1465C47.4966 44.1465 49.4034 44.105 49.4034 44.0636C49.4034 43.96 46.1702 38.5297 45.8386 38.0738C45.5898 37.7421 45.5484 37.7629 45.1546 38.3225Z"
		fill="#757575" />
	<path
		d="M19.2042 38.5919C19.0799 38.737 18.9555 38.9443 18.9141 39.0686C18.8104 39.338 16.9658 42.592 16.4062 43.4625L15.9917 44.1465H19.4529C21.339 44.1465 22.852 44.0843 22.8106 43.9807C22.3131 43.0895 19.4944 38.3432 19.4529 38.3432C19.4322 38.3432 19.3079 38.4676 19.2042 38.5919Z"
		fill="#757575" />
	<path
		d="M35.3512 41.202L33.6724 44.0414L35.4341 44.1036C36.4082 44.1243 37.9419 44.1243 38.8331 44.1036L40.4705 44.0414L39.2062 41.8652C38.5015 40.6631 37.8176 39.4402 37.6518 39.1294C37.4859 38.8185 37.2787 38.5076 37.1958 38.4661C37.1129 38.4039 36.2838 39.6268 35.3512 41.202Z"
		fill="#757575" />
	<path
		d="M14.1063 47.4193C12.4275 50.3624 12.2202 50.7355 11.6606 51.606C10.8316 52.9325 10.4792 52.8496 16.8007 52.8496H22.5211L22.1065 52.3729C21.6506 51.8754 18.6453 47.9582 17.1116 45.8442C16.5934 45.1395 16.0753 44.5592 15.9509 44.5592C15.8266 44.5592 14.9975 45.8442 14.1063 47.4193Z"
		fill="#757575" />
	<path
		d="M23.9713 45.367C25.4429 47.937 28.1787 52.4346 28.2616 52.4346C28.3238 52.4346 29.0699 51.2739 29.9197 49.8438C30.7695 48.4137 31.6814 46.9007 31.9508 46.4655C32.1996 46.051 32.5519 45.4499 32.7177 45.1183L33.0493 44.5587H28.2616H23.4946L23.9713 45.367Z"
		fill="#757575" />
	<path
		d="M39.9507 45.1199C39.7641 45.4515 38.3962 47.2754 36.904 49.1822C35.4324 51.1097 34.2718 52.7263 34.3339 52.7678C34.3754 52.8093 36.904 52.83 39.93 52.8093L45.4638 52.7471L45.1736 52.2289C45.0285 51.9388 44.7384 51.4206 44.5104 51.0475C44.3031 50.6952 43.6192 49.5345 43.0181 48.4568C42.4171 47.3998 41.8367 46.3842 41.7331 46.2184C41.6088 46.0526 41.36 45.5966 41.1735 45.2235C40.759 44.4152 40.4481 44.3945 39.9507 45.1199Z"
		fill="#757575" />
	<path
		d="M23.0815 53.2028C23.0815 53.3065 23.2888 53.6174 23.5582 53.9283C23.807 54.2184 24.2007 54.7366 24.4287 55.0475C24.6567 55.3583 25.4029 56.3325 26.0868 57.2237C26.7708 58.0942 27.5376 59.089 27.7863 59.3999L28.2423 60.001L28.6154 59.5657C28.8226 59.3377 29.2164 58.8403 29.5066 58.4673C29.7968 58.0942 30.3978 57.3066 30.8538 56.7263C31.3305 56.1252 32.1388 55.0682 32.6984 54.3428L33.6725 53.0578H28.3874C25.465 53.0578 23.0815 53.1199 23.0815 53.2028Z"
		fill="#757575" />
</svg>