<svg width="201" height="26" viewBox="0 0 201 26" fill="none" xmlns="http://www.w3.org/2000/svg">
	<path
		d="M16.4338 2.06129C19.4469 4.1792 21.9578 7.10496 23.8355 10.7076L24.8181 12.5635V6.77745V0.991424H19.8617H14.9272L16.4338 2.06129Z"
		fill="#757575" />
	<path
		d="M113.682 2.32323C111.695 2.58524 109.075 3.91712 107.547 5.44551C102.918 10.118 103.442 18.1966 108.66 22.2577C110.058 23.3494 112.59 24.2883 114.555 24.463C118.748 24.8342 122.962 22.8254 125.254 19.3538C125.625 18.808 126.171 17.6071 126.455 16.6464C128.551 10.0525 124.293 3.17476 117.612 2.3014C115.756 2.06123 115.647 2.06123 113.682 2.32323ZM118.66 6.03502C120.123 6.64638 122.023 8.72061 122.612 10.2708C123.311 12.1267 123.202 15.1835 122.394 16.9302C121.651 18.5023 120.385 19.7687 118.791 20.5547C117.7 21.1005 117.241 21.1879 115.756 21.1879C114.337 21.166 113.769 21.0569 112.787 20.5983C111.127 19.8342 109.97 18.7424 109.075 17.1049C108.355 15.773 108.333 15.642 108.333 13.3276C108.333 11.0569 108.376 10.8604 109.031 9.61581C110.167 7.41057 112.023 5.92585 114.053 5.57651C115.472 5.33633 117.525 5.53284 118.66 6.03502Z"
		fill="#757575" />
	<path
		d="M4.27191 2.51971C3.61689 2.62888 2.59069 2.91272 1.97933 3.13106L0.909463 3.56774L0.843961 14.2883L0.800293 25.0088H12.2632H23.7261V24.2883C23.7042 22.5852 23.0492 18.8298 22.416 16.821C20.713 11.5153 17.9837 7.56338 14.2937 5.05246C11.2151 2.97822 7.48152 2.01752 4.27191 2.51971Z"
		fill="#757575" />
	<path
		d="M187.766 2.67286C187.7 2.8912 187.285 3.89557 186.827 4.92177C186.368 5.94797 185.626 7.60736 185.189 8.63356C184.731 9.65976 184.032 11.2755 183.617 12.2362C183.18 13.1969 182.504 14.7689 182.089 15.7296C181.652 16.6903 180.975 18.2624 180.56 19.2231C180.146 20.1838 179.512 21.603 179.163 22.3672C178.814 23.1314 178.53 23.8301 178.53 23.9392C178.53 24.0484 179.316 24.1357 180.277 24.1357H182.023L182.416 23.306C182.635 22.8694 183.137 21.6903 183.552 20.686L184.25 18.8956H189.578C194.905 18.8956 194.927 18.8956 195.124 19.3759C195.233 19.6598 195.691 20.817 196.172 21.9523L197.023 24.0266L198.923 24.0921C199.949 24.1139 200.801 24.1139 200.801 24.0484C200.801 23.9611 200.211 22.5855 198.464 18.5681C198.049 17.6074 197.438 16.1881 197.089 15.4021C196.761 14.6161 196.019 12.9567 195.451 11.6903C194.883 10.424 194.207 8.8519 193.923 8.19688C193.661 7.54185 192.984 5.9698 192.416 4.70343C191.87 3.43705 191.412 2.38902 191.412 2.36718C191.412 2.32351 190.626 2.30168 189.665 2.30168C188.18 2.30168 187.875 2.36718 187.766 2.67286ZM190.298 8.0222C190.539 8.65539 191.325 10.5331 192.045 12.1925C192.787 13.8519 193.377 15.3148 193.377 15.424C193.377 15.5331 191.761 15.6205 189.556 15.6205C187.46 15.6205 185.735 15.5986 185.735 15.555C185.735 15.5113 186.128 14.5506 186.63 13.4152C187.132 12.2798 187.744 10.817 188.028 10.1619C188.966 7.86937 189.469 6.88683 189.665 6.88683C189.774 6.88683 190.058 7.41085 190.298 8.0222Z"
		fill="#757575" />
	<path
		d="M39.4469 4.04841V5.57679H45.5605C49.7526 5.57679 51.674 5.64229 51.674 5.81697C51.674 5.94797 50.7133 7.17068 49.5561 8.56806C48.3771 9.9436 47.2199 11.341 46.9797 11.6685C46.7395 11.996 44.8399 14.2886 42.7875 16.7558L39.0103 21.2536V22.6947V24.1357H47.7439H56.4775V22.6074V21.079H50.1456C45.8225 21.079 43.8137 21.0135 43.8137 20.8388C43.8137 20.7296 45.4076 18.6991 47.3727 16.341C49.3159 13.9829 51.6958 11.1226 52.6347 9.96544C53.5954 8.80823 54.8399 7.30168 55.4295 6.62483C56.4557 5.42395 56.4775 5.35845 56.4775 3.96107V2.52002H47.9622H39.4469V4.04841Z"
		fill="#757575" />
	<path
		d="M61.7173 13.3279V24.1357H69.7959H77.8963L77.8308 22.5419L77.7653 20.9698L71.4771 20.9043L65.1889 20.8606L65.2544 17.8475L65.3199 14.8563L70.7348 14.7908L76.1278 14.7471V13.2187V11.6903L70.7348 11.6467L65.3199 11.5812L65.2544 8.67723L65.1889 5.79513H71.4334H77.6561V4.15758V2.52002H69.6867H61.7173V13.3279Z"
		fill="#757575" />
	<path
		d="M82.6782 13.306V24.1357H84.4249H86.1717V20.3148V16.4938H88.7481H91.3245L91.8485 17.3235C92.1542 17.7602 93.3551 19.4851 94.5341 21.1445L96.6739 24.1357H98.7481H100.844L100.429 23.5026C99.949 22.7165 97.6127 19.4414 96.128 17.4545C95.5603 16.6685 95.1236 16.0135 95.1455 15.9916C95.1891 15.9698 95.7132 15.7078 96.3027 15.4458C97.8966 14.7034 98.6389 14.0484 99.4904 12.651C100.211 11.4502 100.255 11.2755 100.255 9.39775C100.255 7.7602 100.167 7.25801 99.7306 6.40649C98.9883 4.94361 98.0712 4.09208 96.4337 3.30605L95.0145 2.62919L88.8573 2.56369L82.6782 2.49819V13.306ZM94.687 6.29732C96.1498 7.06151 96.5428 7.73836 96.5428 9.46325C96.5428 11.2536 96.0625 12.0615 94.5123 12.8257C93.5734 13.2842 93.2241 13.3279 89.8835 13.3279H86.2808L86.2153 9.55059L86.1717 5.79513H89.949C93.4861 5.79513 93.8136 5.8388 94.687 6.29732Z"
		fill="#757575" />
	<path
		d="M131.804 13.349V24.1787L137.219 24.0914C142.372 24.004 142.678 23.9822 144.184 23.4364C147.35 22.2791 149.512 20.2704 150.734 17.3446C151.499 15.4888 151.695 12.1045 151.127 10.3359C149.839 6.36212 147.197 3.9167 143.049 2.84683C142.066 2.60666 140.56 2.51932 136.782 2.51932H131.804V13.349ZM143.289 6.42762C145.145 7.30098 146.084 8.21801 146.913 9.89924C147.547 11.2093 147.612 11.5586 147.612 13.3272C147.612 14.9647 147.525 15.4888 147.044 16.515C146.258 18.2398 145.145 19.3752 143.551 20.1176C142.263 20.7071 141.979 20.7508 138.857 20.8163L135.516 20.8818V13.349V5.79443H138.747C141.826 5.79443 142.001 5.81627 143.289 6.42762Z"
		fill="#757575" />
	<path
		d="M156.477 13.3279V24.1357H158.224H159.971V19.5506V14.9654L165.385 15.0091L170.778 15.0746L170.844 19.5943L170.888 24.1357H172.634H174.381V13.3279V2.52002H172.634H170.888L170.844 7.03967L170.778 11.5812H165.429H160.08L160.014 7.03967L159.971 2.52002H158.224H156.477V13.3279Z"
		fill="#757575" />
</svg>